<svg width="46" height="46" fill="none" xmlns="http://www.w3.org/2000/svg"><path d="M28.31 13.304A5.31 5.31 0 1 0 23 18.616a5.317 5.317 0 0 0 5.31-5.312Zm-9.363 0a4.053 4.053 0 1 1 8.106.002 4.053 4.053 0 0 1-8.106-.002Z" fill="#FC9F48"/><path d="m44.321 43.51-5.127-13.441a.63.63 0 0 0-.587-.405h-9.703c.059-.097.118-.19.177-.288 3.734-6.18 5.612-11.588 5.585-16.069a11.667 11.667 0 0 0-23.333-.004c-.027 4.485 1.852 9.893 5.585 16.073l.178.288H7.393a.629.629 0 0 0-.588.404L1.68 43.51a.628.628 0 0 0 .588.853h41.466a.627.627 0 0 0 .588-.853Zm-31.73-30.206a10.409 10.409 0 1 1 20.818.004C33.463 22.241 25.11 33.259 23 35.901c-2.111-2.64-10.463-13.656-10.409-22.597Zm9.93 24a.628.628 0 0 0 .958 0 66.751 66.751 0 0 0 4.636-6.383h10.058l.805 2.111-19.655 6.99-7.005-9.102h5.566a66.726 66.726 0 0 0 4.637 6.383Zm-3.22 4.06h.004l11.725-4.169 4.548 5.91H14.411l4.89-1.741ZM7.826 30.92h2.904l7.347 9.546-7.419 2.638H3.179L7.826 30.92Zm29.34 12.184-4.89-6.354 7.152-2.543 3.393 8.898h-5.654Z" fill="#FC9F48"/></svg>