<svg width="29" height="29" fill="none" xmlns="http://www.w3.org/2000/svg"><path fill="#fff" fill-opacity=".22" d="M0 0h29v29H0z"/><path d="M18.669 7H11.33A4.336 4.336 0 0 0 7 11.331v7.338A4.336 4.336 0 0 0 11.331 23h7.338A4.336 4.336 0 0 0 23 18.669v-7.338A4.336 4.336 0 0 0 18.669 7Zm3.393 11.669a3.397 3.397 0 0 1-3.393 3.393H11.33a3.397 3.397 0 0 1-3.393-3.393v-7.338a3.397 3.397 0 0 1 3.393-3.393h7.338a3.397 3.397 0 0 1 3.393 3.393v7.338Z" fill="#fff"/><path d="M15 10.625A4.38 4.38 0 0 0 10.625 15 4.38 4.38 0 0 0 15 19.375 4.38 4.38 0 0 0 19.375 15 4.38 4.38 0 0 0 15 10.625Zm0 7.812A3.44 3.44 0 0 1 11.563 15 3.44 3.44 0 0 1 15 11.563 3.44 3.44 0 0 1 18.437 15 3.44 3.44 0 0 1 15 18.437Zm4.48-9.366c-.713 0-1.293.58-1.293 1.293s.58 1.293 1.293 1.293a1.294 1.294 0 0 0 0-2.586Zm0 1.648a.355.355 0 1 1 0-.71.355.355 0 0 1 0 .71Z" fill="#fff"/></svg>