<svg width="29" height="29" fill="none" xmlns="http://www.w3.org/2000/svg"><path fill="#fff" fill-opacity=".22" d="M0 0h29v29H0z"/><path d="M21.427 14.607a1.813 1.813 0 0 0-1.551-1.41c-1.78-.2-3.58-.2-5.374-.2-1.793 0-3.594 0-5.374.2a1.812 1.812 0 0 0-1.55 1.41c-.25 1.086-.253 2.273-.253 3.392 0 1.119 0 2.305.25 3.392.175.763.8 1.326 1.55 1.41 1.78.199 3.581.2 5.374.199 1.794 0 3.594 0 5.374-.2a1.813 1.813 0 0 0 1.551-1.41c.25-1.086.251-2.272.251-3.391 0-1.12.002-2.306-.248-3.392Zm-10.009.842H10.38v5.519h-.965v-5.52h-1.02v-.903h3.023v.904Zm2.62 5.52h-.867v-.523c-.345.395-.672.588-.991.588-.28 0-.472-.113-.559-.356-.047-.145-.077-.374-.077-.711v-3.785h.868v3.524c0 .203 0 .309.007.337.021.135.087.203.203.203.174 0 .356-.134.549-.406v-3.658h.867v4.786Zm3.295-1.437c0 .442-.03.761-.088.964-.116.356-.348.538-.692.538-.309 0-.607-.171-.897-.53v.464h-.867v-6.423h.867v2.098c.28-.345.578-.52.897-.52.345 0 .577.182.692.54.059.193.088.51.088.962v1.907Zm3.273-.799H18.87v.848c0 .444.145.665.444.665.213 0 .337-.116.387-.348.008-.047.02-.24.02-.588h.884v.127c0 .28-.01.472-.019.559a1.242 1.242 0 0 1-.202.52c-.24.347-.596.518-1.049.518-.454 0-.799-.163-1.05-.49-.184-.24-.278-.617-.278-1.125v-1.677c0-.511.084-.886.268-1.127.25-.328.596-.491 1.039-.491.435 0 .78.163 1.023.49.181.242.268.617.268 1.128v.991Z" fill="#fff"/><path d="M19.307 16.904c-.29 0-.435.222-.435.664v.443h.867v-.443c0-.442-.145-.664-.432-.664Zm-3.218 0c-.143 0-.288.068-.433.211v2.917c.145.145.29.214.433.214.25 0 .377-.214.377-.646v-2.043c0-.431-.127-.653-.377-.653Zm.484-4.347c.32 0 .652-.194 1.001-.594v.527h.877V7.654h-.877v3.696c-.194.275-.378.41-.554.41-.117 0-.186-.069-.205-.205-.01-.028-.01-.135-.01-.34V7.653h-.874v3.824c0 .342.029.573.077.72.088.244.283.359.565.359Zm-6.101-2.695v2.628h.971V9.862L12.613 6h-.983l-.663 2.549L10.277 6H9.254c.205.602.418 1.206.623 1.808.312.906.506 1.588.595 2.054Zm3.443 2.695c.44 0 .78-.165 1.023-.495.183-.242.271-.624.271-1.138V9.23c0-.517-.087-.895-.271-1.139-.243-.33-.584-.496-1.023-.496-.437 0-.778.165-1.02.496-.186.244-.275.622-.275 1.14v1.693c0 .514.089.896.275 1.138.242.33.583.495 1.02.495Zm-.418-3.502c0-.448.136-.67.418-.67.283 0 .418.222.418.67v2.034c0 .448-.135.672-.418.672-.282 0-.418-.224-.418-.672V9.055Z" fill="#fff"/></svg>