<svg width="29" height="29" fill="none" xmlns="http://www.w3.org/2000/svg"><path fill="#fff" fill-opacity=".22" d="M0 0h29v29H0z"/><path d="M15 8c-1.93 0-3.5 1.57-3.5 3.5S13.07 15 15 15s3.5-1.57 3.5-3.5S16.93 8 15 8Zm0 6.125a2.628 2.628 0 0 1-2.625-2.625A2.628 2.628 0 0 1 15 8.875a2.628 2.628 0 0 1 2.625 2.625A2.628 2.628 0 0 1 15 14.125Zm3.422 7.186-3.063-4.375c-.163-.232-.552-.232-.716 0l-3.063 4.375a.437.437 0 1 0 .717.503L15 17.95l2.705 3.863a.435.435 0 0 0 .61.106.436.436 0 0 0 .107-.609Z" fill="#fff"/><path d="M19.33 15.212a.438.438 0 0 0-.618 0 5.255 5.255 0 0 1-7.424 0 .438.438 0 0 0-.619.618A6.11 6.11 0 0 0 15 17.622a6.107 6.107 0 0 0 4.33-1.792.438.438 0 0 0 0-.618Z" fill="#fff"/></svg>