<svg width="29" height="29" fill="none" xmlns="http://www.w3.org/2000/svg"><path fill="#fff" fill-opacity=".22" d="M0 0h29v29H0z"/><path d="M20.976 7.155a1.542 1.542 0 0 0-.5.118 2824.308 2824.308 0 0 0-6.972 2.98l-6.618 2.836.024-.009s-.198.066-.399.206c-.1.07-.208.16-.297.292a.772.772 0 0 0-.128.516c.085.693.803.889.803.889l.003.001 3.205 1.097c.082.273.972 3.245 1.168 3.874.108.348.21.548.315.685a.667.667 0 0 0 .17.16c.024.016.05.028.075.038.004.001.007.001.01.003l-.008-.002.017.008c.012.004.019.004.033.007.367.128.671-.11.671-.11l.013-.01 1.969-1.826 3.194 2.492.04.018c.56.248 1.066.11 1.346-.118.28-.228.39-.522.39-.522l.012-.03L21.86 8.51c.06-.274.068-.51.012-.724a.841.841 0 0 0-.367-.503.932.932 0 0 0-.53-.129Zm.019.732a.33.33 0 0 1 .14.015c.017.01.024.008.04.069.016.06.025.187-.019.386l-.001.004-2.334 12.165c-.006.013-.055.125-.166.216-.113.092-.239.164-.573.023l-3.494-2.724-.099-.078-.002.003-1.045-.784 5.872-6.908a.36.36 0 0 0-.474-.533l-8.496 5.664-3.21-1.1s-.319-.176-.334-.3c0-.007-.005 0 .012-.025a.474.474 0 0 1 .11-.103 1.14 1.14 0 0 1 .224-.117l.012-.004.012-.005 6.618-2.837 4.647-1.99c1.294-.553 2.23-.95 2.309-.983.09-.036.18-.05.25-.054ZM17.1 11.765l-4.453 5.24-.002.002a.355.355 0 0 0-.04.056.362.362 0 0 0-.047.138v.003l-.58 2.609c-.01-.028-.016-.039-.026-.072a756.927 756.927 0 0 1-1.141-3.783l6.289-4.193Zm-3.95 6.098.8.6-1.176 1.09.376-1.69Z" fill="#fff"/></svg>