<svg width="29" height="29" fill="none" xmlns="http://www.w3.org/2000/svg"><path fill="#fff" fill-opacity=".22" d="M0 0h29v29H0z"/><g clip-path="url(#a)" fill="#fff"><path d="M21.334 16.834c-.327-.39-.695-.74-1.052-1.077-.125-.119-.255-.242-.38-.364-.168-.163-.25-.28-.258-.366-.009-.084.049-.209.182-.394.198-.278.41-.557.614-.827.181-.24.37-.487.55-.736l.04-.056c.351-.487.715-.99.91-1.603.055-.175.113-.435-.027-.664-.139-.228-.397-.296-.58-.327a1.456 1.456 0 0 0-.251-.016l-2.28-.002c-.394-.007-.667.18-.816.555-.12.3-.26.647-.423.976-.312.636-.709 1.368-1.284 1.979l-.026.027a.765.765 0 0 1-.135.126c-.063-.04-.135-.263-.131-.38v-.01l-.002-2.633a.26.26 0 0 0-.003-.04c-.051-.376-.15-.753-.745-.87a.297.297 0 0 0-.058-.006h-2.372c-.446 0-.681.205-.87.426-.055.065-.2.236-.127.446.075.212.299.254.372.268.258.049.392.195.433.474.082.543.092 1.123.032 1.826a1.488 1.488 0 0 1-.098.45.345.345 0 0 1-.035.066.347.347 0 0 1-.064-.036c-.182-.124-.319-.317-.451-.504a12.349 12.349 0 0 1-1.36-2.52c-.159-.39-.458-.607-.841-.612a56.71 56.71 0 0 0-2.064 0c-.31.006-.529.104-.648.291-.119.188-.115.428.013.712.914 2.033 1.744 3.511 2.691 4.794.667.903 1.338 1.53 2.112 1.973.814.466 1.731.694 2.795.694.121 0 .244-.003.37-.01.656-.03.923-.29.952-.93.017-.338.054-.612.185-.85.036-.066.077-.11.11-.119.034-.009.096.013.163.057.125.08.232.19.32.286.09.098.18.2.267.297.186.208.378.423.58.628.455.464.98.677 1.56.632l2.086.001h.02a.702.702 0 0 0 .571-.366.928.928 0 0 0-.006-.883 4.439 4.439 0 0 0-.541-.783Zm.027 1.372c-.029.051-.064.06-.083.063l-2.085-.001h-.025c-.411.035-.76-.11-1.098-.454a16.76 16.76 0 0 1-.56-.607l-.272-.302a2.27 2.27 0 0 0-.435-.384c-.27-.176-.495-.17-.635-.135s-.337.135-.488.411c-.197.358-.24.744-.258 1.11-.01.223-.048.281-.063.296-.021.02-.09.055-.32.065-1.107.052-2.036-.146-2.84-.606-.7-.4-1.313-.976-1.928-1.81-.92-1.247-1.73-2.692-2.627-4.684a.505.505 0 0 1-.045-.141.513.513 0 0 1 .146-.019c.652-.012 1.32-.013 2.044 0 .099 0 .212.03.297.24.404.992.87 1.855 1.425 2.64.148.208.331.467.601.651.247.17.448.162.572.125.125-.037.299-.138.415-.415.075-.178.12-.378.143-.631.065-.752.053-1.377-.036-1.966-.062-.422-.28-.727-.624-.883a.467.467 0 0 1 .226-.045h2.34c.131.03.158.064.166.076.038.05.06.17.073.263l.002 2.61c-.005.25.117.804.53.957a.417.417 0 0 0 .01.003c.378.123.627-.143.76-.286l.025-.025c.63-.668 1.053-1.45 1.385-2.124.172-.349.319-.71.442-1.02.062-.156.119-.182.253-.179h.005l2.283.002c.053 0 .108.001.151.008a.484.484 0 0 1 .169.05.477.477 0 0 1-.032.172c-.166.521-.486.964-.824 1.433l-.04.056c-.177.243-.363.488-.542.725-.207.273-.421.556-.624.84-.434.606-.396 1.008.145 1.536.128.125.26.25.386.37.36.34.7.662 1.003 1.026.16.191.34.421.47.674.069.133.052.253.017.315Z"/><path d="M9.18 11.97a32.073 32.073 0 0 1-.131-.261.299.299 0 1 0-.536.264l.133.266a.299.299 0 0 0 .533-.27Zm1.873 3.1a19.822 19.822 0 0 1-1.401-2.205.299.299 0 1 0-.523.29c.466.842.938 1.585 1.444 2.27a.298.298 0 1 0 .48-.355Z"/></g><defs><clipPath id="a"><path fill="#fff" transform="translate(7 7)" d="M0 0h15v15H0z"/></clipPath></defs></svg>