<svg width="23" height="24" viewBox="0 0 23 24" fill="none" xmlns="http://www.w3.org/2000/svg">
<g clip-path="url(#clip0)">
<path d="M21.6614 14.7028V6.44972L5.40298 3.51417V2.49956C5.40298 1.39701 4.50601 0.5 3.40347 0.5H1.33838V1.85487H3.40342C3.75889 1.85487 4.04811 2.14409 4.04811 2.49956V15.0097C4.04811 16.454 5.22305 17.6289 6.6673 17.6289H7.20947V19.1729C6.93267 19.0516 6.62728 18.9838 6.30622 18.9838C5.0611 18.9838 4.04811 19.9968 4.04811 21.2419C4.04811 22.487 5.0611 23.5 6.30622 23.5C7.47516 23.5 8.43937 22.6072 8.553 21.4677H8.56434V17.6289H20.3065V19.1729C20.0297 19.0516 19.7243 18.9838 19.4033 18.9838C18.1581 18.9838 17.1452 19.9968 17.1452 21.2419C17.1452 22.487 18.1581 23.5 19.4033 23.5C20.5722 23.5 21.5364 22.6072 21.65 21.4677H21.6614V16.274H6.6673C5.97013 16.274 5.40298 15.7069 5.40298 15.0097V14.477L21.6614 14.7028ZM6.30622 22.1451C5.80818 22.1451 5.40298 21.7399 5.40298 21.2419C5.40298 20.7438 5.80818 20.3386 6.30622 20.3386C6.80427 20.3386 7.20947 20.7438 7.20947 21.2419C7.20947 21.7399 6.80427 22.1451 6.30622 22.1451ZM19.4033 22.1451C18.9052 22.1451 18.5 21.7399 18.5 21.2419C18.5 20.7438 18.9052 20.3386 19.4033 20.3386C19.9013 20.3386 20.3065 20.7438 20.3065 21.2419C20.3065 21.7399 19.9013 22.1451 19.4033 22.1451ZM12.1773 13.2161L9.46758 13.1785V5.62483L12.1773 6.11407V13.2161ZM13.5322 6.35872L16.0161 6.80722V13.2694L13.5322 13.2349V6.35872ZM8.11271 13.1597L5.40298 13.122V4.89094L8.11271 5.38019V13.1597ZM20.3065 13.329L17.371 13.2882V7.05182L20.3065 7.58185V13.329Z" fill="white"/>
</g>
<defs>
<clipPath id="clip0">
<rect width="23" height="23" fill="white" transform="translate(0 0.5)"/>
</clipPath>
</defs>
</svg>
