<svg width="46" height="46" viewBox="0 0 46 46" fill="none" xmlns="http://www.w3.org/2000/svg">
<g clip-path="url(#clip0)">
<path d="M45.7372 22.3656L23.6356 0.264039C23.2847 -0.0867109 22.716 -0.0867109 22.3649 0.264039L0.263374 22.3656C-0.0874658 22.7164 -0.0874658 23.2853 0.263374 23.6363L22.3649 45.7378C22.7159 46.0887 23.2847 46.0887 23.6356 45.7378L45.7372 23.6363C46.088 23.2853 46.088 22.7164 45.7372 22.3656ZM37.7513 23.3812C39.3493 25.8666 35.4914 26.2386 36.01 30.8221L29.8299 37.0022C29.5797 34.685 30.9857 32.758 31.9145 31.2092C34.29 27.2212 34.3381 24.6706 34.3769 22.6211C34.3996 21.4184 34.4193 20.3798 34.9073 19.2312C35.4 18.0717 36.2318 17.2001 37.1083 16.278L38.6182 17.7879C37.083 19.4117 36.58 21.3853 37.7513 23.3812ZM23.0002 2.16998L25.8841 5.05388C24.7771 6.00029 23.4494 6.57547 21.8497 6.80502C20.8922 6.94248 19.8151 6.6584 18.8753 6.29489L23.0002 2.16998ZM16.5412 37.3727L14.0445 34.8761C15.7949 33.8418 17.5265 33.6695 18.3454 30.7022C18.4679 30.2213 18.1773 29.7323 17.6965 29.6099C17.2152 29.4872 16.7264 29.778 16.6042 30.2588C16.0691 32.5233 14.2855 32.4369 12.7519 33.5836L10.3977 31.2294C12.7772 29.964 15.745 29.1269 16.9219 26.5068C17.1176 26.0699 17.3106 25.6077 17.4972 25.1609C18.3319 23.1621 19.1952 21.0952 20.7561 19.9712C21.431 19.4852 22.1829 19.5118 22.5199 19.8187C22.8991 20.1637 22.5704 20.8315 22.4115 21.1028C20.5546 24.2719 20.3165 28.3966 20.3165 31.6359C20.3676 35.1563 18.2921 35.1413 16.5412 37.3727ZM23.0002 43.8318L17.8182 38.6498C18.3771 37.9439 18.9558 37.4621 19.5191 36.9932C20.8533 35.883 22.1134 34.8342 22.1134 31.6357C22.1134 28.6235 22.3235 24.8072 23.9618 22.011C25.8696 18.6622 22.2432 16.6565 19.7063 18.5128C17.3235 20.2484 16.4133 23.2374 15.282 25.7722C14.3454 27.8675 11.1303 28.6725 9.07552 29.9071L4.96741 25.7989C7.07676 24.6457 10.04 23.8665 11.604 22.2615C12.2769 21.566 12.8934 20.695 13.4673 19.8626C13.7489 19.454 13.646 18.8947 13.2374 18.613C12.8287 18.3313 12.2693 18.4343 11.9878 18.8428C11.4567 19.6132 10.89 20.4153 10.3126 21.012C8.81344 22.4567 5.63558 23.2542 3.64509 24.4767L2.16932 23.0009L17.5016 7.6686C18.5846 8.14909 19.9646 8.63649 21.344 8.63649C23.5308 8.5585 25.6204 7.67579 27.1572 6.32688L29.6964 8.86604C26.1021 10.7473 23.9015 9.22892 20.1424 11.0226C19.2122 11.4519 18.3253 11.973 17.5063 12.5717C17.1057 12.8646 17.0183 13.4267 17.3111 13.8273C17.6058 14.2304 18.1701 14.3134 18.5667 14.0224C23.6511 10.2548 26.0018 13.1006 31.0157 10.1853L35.8374 15.0069C34.8735 16.0215 33.8825 17.0507 33.2537 18.5284C32.6293 19.9975 32.6055 21.2554 32.5804 22.5872C32.5439 24.5201 32.5025 26.7109 30.3708 30.2896C29.1976 32.2458 27.1778 35.0431 28.3477 38.4844L23.0002 43.8318ZM37.9049 28.9272C38.1059 28.2216 38.489 27.6897 38.8845 27.1408C42.0604 23.1016 36.8906 22.3466 39.89 19.0599L43.8312 23.0009L37.9049 28.9272Z" fill="#FC9F48"/>
<path d="M15.1094 15.1864C14.613 15.186 14.2106 15.5885 14.2106 16.0848C14.2548 17.275 15.9639 17.2752 16.0078 16.0848C16.0078 15.5887 15.6056 15.1864 15.1094 15.1864Z" fill="#FC9F48"/>
</g>
<defs>
<clipPath id="clip0">
<rect width="46" height="46" fill="white"/>
</clipPath>
</defs>
</svg>
