<svg width="46" height="46" viewBox="0 0 46 46" fill="none" xmlns="http://www.w3.org/2000/svg">
<path d="M28.3105 13.3044C28.3104 12.2541 27.9988 11.2275 27.4152 10.3542C26.8316 9.48103 26.0022 8.80049 25.0318 8.39866C24.0614 7.99683 22.9937 7.89177 21.9636 8.09676C20.9335 8.30175 19.9873 8.80758 19.2447 9.55029C18.5021 10.293 17.9964 11.2392 17.7916 12.2694C17.5867 13.2995 17.6919 14.3672 18.0939 15.3375C18.4958 16.3078 19.1765 17.1372 20.0498 17.7207C20.9231 18.3042 21.9498 18.6156 23.0001 18.6156C24.4081 18.6139 25.7579 18.0537 26.7535 17.058C27.749 16.0623 28.309 14.7124 28.3105 13.3044ZM18.9474 13.3044C18.9475 12.5029 19.1853 11.7194 19.6307 11.053C20.0761 10.3867 20.7091 9.86735 21.4497 9.56073C22.1902 9.2541 23.005 9.17395 23.7911 9.3304C24.5772 9.48686 25.2993 9.87289 25.866 10.4397C26.4327 11.0065 26.8186 11.7286 26.9749 12.5147C27.1312 13.3009 27.0509 14.1157 26.7442 14.8562C26.4374 15.5967 25.918 16.2295 25.2515 16.6748C24.5851 17.1201 23.8016 17.3578 23.0001 17.3578C21.9255 17.3565 20.8953 16.9291 20.1355 16.1692C19.3757 15.4092 18.9484 14.379 18.9474 13.3044Z" fill="#FC9F48"/>
<path d="M44.321 43.5092L39.1942 30.0685C39.1487 29.9495 39.0682 29.8471 38.9633 29.7749C38.8583 29.7026 38.734 29.6639 38.6066 29.6639H28.9035C28.9627 29.5672 29.0217 29.4734 29.081 29.3764C32.8145 23.1951 34.6933 17.788 34.6664 13.3073C34.6669 10.2131 33.4382 7.24537 31.2507 5.05706C29.0631 2.86875 26.0958 1.63907 23.0016 1.63855C19.9074 1.63803 16.9397 2.86669 14.7514 5.05426C12.5631 7.24183 11.3334 10.2091 11.3329 13.3033C11.3059 17.788 13.1847 23.1958 16.9183 29.3764C16.9776 29.4745 17.0365 29.5683 17.0958 29.6639H7.3927C7.26531 29.6639 7.14094 29.7026 7.03602 29.7749C6.93111 29.8471 6.85059 29.9495 6.80512 30.0685L1.67899 43.5092C1.64247 43.6044 1.62968 43.7071 1.64173 43.8083C1.65378 43.9096 1.69031 44.0064 1.74816 44.0904C1.80601 44.1744 1.88344 44.2431 1.97376 44.2904C2.06408 44.3378 2.16458 44.3625 2.26657 44.3623H43.7334C43.8354 44.3625 43.9359 44.3378 44.0262 44.2904C44.1166 44.2431 44.194 44.1744 44.2518 44.0904C44.3097 44.0064 44.3462 43.9096 44.3583 43.8083C44.3703 43.7071 44.3575 43.6044 44.321 43.5092ZM12.5911 13.3044C12.5913 11.9375 12.8608 10.584 13.3841 9.32121C13.9074 8.05843 14.6743 6.91109 15.641 5.9447C16.6078 4.9783 17.7554 4.21179 19.0183 3.68891C20.2813 3.16603 21.6349 2.89702 23.0018 2.89726C24.3687 2.8975 25.7222 3.16697 26.985 3.69028C28.2478 4.2136 29.3951 4.98051 30.3615 5.94724C31.3279 6.91396 32.0944 8.06157 32.6173 9.32453C33.1402 10.5875 33.4092 11.9411 33.4089 13.308C33.4628 22.2413 25.111 33.2594 23 35.9015C20.889 33.2605 12.5368 22.2453 12.5911 13.3044ZM22.521 37.3031C22.58 37.3725 22.6534 37.4283 22.7361 37.4665C22.8188 37.5047 22.9089 37.5245 23 37.5245C23.0911 37.5245 23.1812 37.5047 23.2639 37.4665C23.3466 37.4283 23.42 37.3725 23.479 37.3031C25.1488 35.269 26.6968 33.1379 28.115 30.921H38.1728L38.9778 33.0323L19.3232 40.0225L12.3176 30.9199H17.8843C19.3026 33.1372 20.8509 35.2687 22.521 37.3031ZM19.3013 41.364H19.3049L31.0302 37.1953L35.5781 43.1045H14.4109L19.3013 41.364ZM7.82646 30.9199H10.7302L18.0766 40.4656L10.658 43.1041H3.17939L7.82646 30.9199ZM37.1669 43.1045L32.2762 36.75L39.4277 34.2067L42.8213 43.1045H37.1669Z" fill="#FC9F48"/>
</svg>
