<svg width="46" height="46" viewBox="0 0 46 46" fill="none" xmlns="http://www.w3.org/2000/svg">
<path d="M23.0002 44.2033C13.4846 44.2033 5.1839 37.776 2.81324 28.5727C2.71427 28.1888 2.94625 27.7964 3.33089 27.6971C3.71167 27.601 4.10719 27.8301 4.20616 28.2148C6.41222 36.7821 14.1408 42.7658 23.0002 42.7658C33.7006 42.7658 42.4063 34.0602 42.4063 23.3597C42.4063 22.9621 42.7274 22.641 43.125 22.641C43.5223 22.641 43.8438 22.9621 43.8438 23.3597C43.8438 34.8523 34.4927 44.2033 23.0002 44.2033Z" fill="#FC9F48"/>
<path d="M2.87536 23.3597C2.47773 23.3597 2.15662 23.0382 2.15662 22.641C2.15662 11.1481 11.5073 1.79736 23.0002 1.79736C32.5155 1.79736 40.8162 8.2243 43.1868 17.4276C43.2858 17.8115 43.0538 18.2039 42.6692 18.3032C42.2905 18.4032 41.8936 18.1702 41.7939 17.7856C39.5878 9.21819 31.8592 3.23485 23.0002 3.23485C12.2994 3.23485 3.59411 11.9402 3.59411 22.641C3.59411 23.0382 3.27264 23.3597 2.87536 23.3597Z" fill="#FC9F48"/>
<path d="M2.87539 23.3598C2.69114 23.3598 2.50724 23.2892 2.36721 23.1488L0.210957 20.9926C-0.0701561 20.7118 -0.0701561 20.2573 0.210957 19.9766C0.491718 19.6955 0.946201 19.6955 1.22696 19.9766L3.38321 22.1328C3.66433 22.4136 3.66433 22.8681 3.38321 23.1488C3.24318 23.2892 3.05928 23.3598 2.87539 23.3598Z" fill="#FC9F48"/>
<path d="M2.87538 23.3598C2.69114 23.3598 2.50724 23.2892 2.36721 23.1488C2.08609 22.8681 2.08609 22.4136 2.36721 22.1328L4.52346 19.9766C4.80422 19.6955 5.2587 19.6955 5.53946 19.9766C5.82057 20.2573 5.82057 20.7118 5.53946 20.9926L3.38321 23.1488C3.24318 23.2892 3.05928 23.3598 2.87538 23.3598Z" fill="#FC9F48"/>
<path d="M45.2813 25.5159C45.097 25.5159 44.9131 25.4454 44.7731 25.305L42.6168 23.1487C42.3357 22.868 42.3357 22.4135 42.6168 22.1327C42.8976 21.8516 43.3521 21.8516 43.6328 22.1327L45.7891 24.289C46.0702 24.5697 46.0702 25.0242 45.7891 25.305C45.6491 25.4454 45.4652 25.5159 45.2813 25.5159Z" fill="#FC9F48"/>
<path d="M40.9688 25.5159C40.7845 25.5159 40.6006 25.4454 40.4606 25.305C40.1795 25.0242 40.1795 24.5697 40.4606 24.289L42.6168 22.1327C42.8976 21.8516 43.3521 21.8516 43.6329 22.1327C43.914 22.4135 43.914 22.868 43.6329 23.1487L41.4766 25.305C41.3366 25.4454 41.1527 25.5159 40.9688 25.5159Z" fill="#FC9F48"/>
<path d="M10.061 39.4918C9.66375 39.4918 9.34229 39.1704 9.34229 38.7731V20.4774C9.34229 20.0798 9.66375 19.7587 10.061 19.7587C10.4587 19.7587 10.7798 20.0798 10.7798 20.4774V38.7731C10.7798 39.1704 10.4587 39.4918 10.061 39.4918Z" fill="#FC9F48"/>
<path d="M35.939 39.4932C35.5413 39.4932 35.2202 39.1721 35.2202 38.7745V20.4774C35.2202 20.0798 35.5413 19.7587 35.939 19.7587C36.3362 19.7587 36.6577 20.0798 36.6577 20.4774V38.7745C36.6577 39.1721 36.3362 39.4932 35.939 39.4932Z" fill="#FC9F48"/>
<path d="M35.939 21.1962H10.061C9.66375 21.1962 9.34229 20.875 9.34229 20.4774C9.34229 20.0798 9.66375 19.7587 10.061 19.7587H35.939C36.3363 19.7587 36.6577 20.0798 36.6577 20.4774C36.6577 20.875 36.3363 21.1962 35.939 21.1962Z" fill="#FC9F48"/>
<path d="M10.0603 21.1962C9.93463 21.1962 9.80653 21.1632 9.69107 21.0933C9.35029 20.8894 9.24044 20.4479 9.44435 20.1072L11.6006 16.512C11.8041 16.1723 12.2453 16.0614 12.5868 16.2656C12.9275 16.4695 13.0374 16.911 12.8335 17.2518L10.6772 20.847C10.5428 21.0719 10.3049 21.1962 10.0603 21.1962Z" fill="#FC9F48"/>
<path d="M35.9397 21.1962C35.6951 21.1962 35.4572 21.072 35.3228 20.8477L33.1665 17.2526C32.9626 16.9118 33.0725 16.4703 33.4132 16.2664C33.754 16.0621 34.1952 16.173 34.3994 16.5127L36.5557 20.1079C36.7596 20.4487 36.6497 20.8902 36.3089 21.0941C36.1928 21.1632 36.0654 21.1962 35.9397 21.1962Z" fill="#FC9F48"/>
<path d="M33.7828 17.6011H12.2173C11.82 17.6011 11.4985 17.2796 11.4985 16.8823C11.4985 16.4847 11.82 16.1636 12.2173 16.1636H33.7828C34.18 16.1636 34.5015 16.4847 34.5015 16.8823C34.5015 17.2796 34.18 17.6011 33.7828 17.6011Z" fill="#FC9F48"/>
<path d="M20.1242 21.1962C20.0782 21.1962 20.0301 21.192 19.9827 21.1818C19.5939 21.1042 19.3409 20.7256 19.4191 20.336L20.1379 16.7405C20.2151 16.352 20.5902 16.0958 20.984 16.1772C21.3729 16.2548 21.6259 16.6335 21.5476 17.023L20.8289 20.6182C20.7605 20.9603 20.46 21.1962 20.1242 21.1962Z" fill="#FC9F48"/>
<path d="M25.8742 21.1961C25.5387 21.1961 25.2382 20.9603 25.1705 20.6181L24.4518 17.0229C24.3742 16.6334 24.6265 16.2554 25.0154 16.1771C25.4099 16.0964 25.7836 16.3519 25.8615 16.7404L26.5803 20.3359C26.6578 20.7255 26.4055 21.1035 26.0166 21.1817C25.9686 21.1919 25.9205 21.1961 25.8742 21.1961Z" fill="#FC9F48"/>
<path d="M20.1234 25.5087C19.7261 25.5087 19.4047 25.1876 19.4047 24.7899V20.4774C19.4047 20.0798 19.7261 19.7587 20.1234 19.7587C20.521 19.7587 20.8422 20.0798 20.8422 20.4774V24.7899C20.8422 25.1876 20.521 25.5087 20.1234 25.5087Z" fill="#FC9F48"/>
<path d="M25.8751 25.5087C25.4775 25.5087 25.1564 25.1876 25.1564 24.7899V20.4774C25.1564 20.0798 25.4775 19.7587 25.8751 19.7587C26.2724 19.7587 26.5939 20.0798 26.5939 20.4774V24.7899C26.5939 25.1876 26.2724 25.5087 25.8751 25.5087Z" fill="#FC9F48"/>
<path d="M25.8759 25.5086C25.8183 25.5086 25.7594 25.5016 25.7011 25.4872L22.8261 24.7684C22.4408 24.6719 22.2067 24.2817 22.3028 23.897C22.3983 23.5113 22.7879 23.2762 23.1739 23.3738L26.0489 24.0925C26.4342 24.189 26.6687 24.5793 26.5722 24.9639C26.4904 25.2917 26.1977 25.5086 25.8759 25.5086Z" fill="#FC9F48"/>
<path d="M20.1228 25.5086C19.801 25.5086 19.5083 25.2906 19.4265 24.9639C19.3293 24.5793 19.5637 24.189 19.9498 24.0925L22.8262 23.3737C23.2101 23.2755 23.6011 23.5113 23.6973 23.897C23.7945 24.2817 23.56 24.6719 23.174 24.7684L20.2976 25.4872C20.2393 25.5016 20.1804 25.5086 20.1228 25.5086Z" fill="#FC9F48"/>
<path d="M29.4717 34.1349H16.5283C16.131 34.1349 15.8096 33.8138 15.8096 33.4161C15.8096 33.0189 16.131 32.6974 16.5283 32.6974H29.4717C29.8689 32.6974 30.1904 33.0189 30.1904 33.4161C30.1904 33.8138 29.8689 34.1349 29.4717 34.1349Z" fill="#FC9F48"/>
<path d="M29.4717 31.2659H16.5283C16.131 31.2659 15.8096 30.9444 15.8096 30.5471C15.8096 30.1495 16.131 29.8284 16.5283 29.8284H29.4717C29.8689 29.8284 30.1904 30.1495 30.1904 30.5471C30.1904 30.9444 29.8689 31.2659 29.4717 31.2659Z" fill="#FC9F48"/>
<path d="M25.8766 37.0113H20.1234C19.7261 37.0113 19.4047 36.6902 19.4047 36.2926C19.4047 35.8953 19.7261 35.5739 20.1234 35.5739H25.8766C26.2738 35.5739 26.5953 35.8953 26.5953 36.2926C26.5953 36.6902 26.2738 37.0113 25.8766 37.0113Z" fill="#FC9F48"/>
</svg>
