<svg width="29" height="29" viewBox="0 0 29 29" fill="none" xmlns="http://www.w3.org/2000/svg">
<rect width="29" height="29" fill="white" fill-opacity="0.22"/>
<g clip-path="url(#clip0)">
<path d="M18.2232 9.85992H19.7888V7.00162H16.9437C16.7063 6.99174 13.8131 6.93644 13.0632 9.79606C13.0524 9.82602 12.8127 10.5061 12.8127 12.0948L10.2112 12.1027V15.1005L12.816 15.093V23.0003H16.7949V15.0999H19.4283V12.0941H16.7949V11.1484C16.7949 10.5604 17.0427 9.85992 18.2232 9.85992ZM18.77 12.7521V14.4412H16.1365V22.3416H13.4744V14.4326L10.8696 14.4402V12.759L13.4813 12.7515L13.4744 12.4167C13.4401 10.7339 13.6801 10.0262 13.691 9.99226C14.3382 7.5293 16.8094 7.65307 16.9153 7.65966L19.1304 7.66032V9.20188H18.2232C16.6849 9.20188 16.1368 10.2072 16.1368 11.148V12.7521H18.77Z" fill="white"/>
</g>
<defs>
<clipPath id="clip0">
<rect width="16" height="16" fill="white" transform="translate(7 7)"/>
</clipPath>
</defs>
</svg>
