<svg width="29" height="29" viewBox="0 0 29 29" fill="none" xmlns="http://www.w3.org/2000/svg">
<rect width="29" height="29" fill="white" fill-opacity="0.22"/>
<path d="M21.427 14.6065C21.2514 13.8433 20.6271 13.2803 19.8756 13.1965C18.0967 12.9978 16.2952 12.9968 14.5025 12.9978C12.7091 12.9968 10.908 12.9978 9.12843 13.1965C8.3774 13.2805 7.75347 13.8435 7.57799 14.6065C7.32789 15.6934 7.32489 16.8797 7.32489 17.9988C7.32489 19.1178 7.32489 20.304 7.57499 21.3908C7.75047 22.1539 8.3744 22.7169 9.12581 22.8009C10.905 22.9998 12.7061 23.0005 14.4993 22.9998C16.2927 23.0007 18.0935 22.9998 19.8732 22.8009C20.6242 22.7169 21.2486 22.1539 21.424 21.3908C21.6739 20.304 21.6753 19.1178 21.6753 17.9988C21.6751 16.8795 21.6769 15.6934 21.427 14.6065ZM11.4181 15.4489H10.3795V20.9679H9.41471V15.4489H8.39502V14.5449H11.4181V15.4489ZM14.0385 20.9681H13.1707V20.4459C12.8259 20.8411 12.4986 21.0339 12.1796 21.0339C11.9001 21.0339 11.7078 20.9206 11.621 20.6782C11.5737 20.5335 11.5445 20.3044 11.5445 19.9666V16.1821H12.4116V19.7058C12.4116 19.909 12.4116 20.0145 12.4194 20.043C12.4402 20.1777 12.506 20.2459 12.6223 20.2459C12.7963 20.2459 12.9781 20.1118 13.1705 19.8398V16.1821H14.0383L14.0385 20.9681ZM17.3331 19.5316C17.3331 19.9742 17.3033 20.2931 17.2453 20.496C17.1295 20.852 16.8975 21.0339 16.5526 21.0339C16.244 21.0339 15.9463 20.8625 15.6563 20.5044V20.9683H14.7892V14.5449H15.6563V16.6426C15.9363 16.2978 16.2337 16.1234 16.5526 16.1234C16.8975 16.1234 17.1296 16.3051 17.2453 16.6634C17.3036 16.8559 17.3331 17.1724 17.3331 17.6255V19.5316ZM20.6059 18.7331H18.8715V19.5815C18.8715 20.0245 19.0164 20.2457 19.3145 20.2457C19.5281 20.2457 19.6524 20.1297 19.7019 19.8979C19.7099 19.8509 19.7214 19.6582 19.7214 19.3104H20.6061V19.4369C20.6061 19.7165 20.5954 19.909 20.5875 19.9956C20.5584 20.1876 20.4902 20.3618 20.385 20.5151C20.1449 20.8627 19.789 21.0341 19.3361 21.0341C18.8824 21.0341 18.537 20.8708 18.2864 20.544C18.1025 20.3044 18.008 19.9272 18.008 19.4186V17.7423C18.008 17.2307 18.0918 16.8565 18.2761 16.6146C18.5266 16.2871 18.8717 16.124 19.3147 16.124C19.7498 16.124 20.0948 16.2871 20.3378 16.6146C20.5194 16.8565 20.6062 17.2307 20.6062 17.7423V18.7331H20.6059Z" fill="white"/>
<path d="M19.3068 16.9043C19.017 16.9043 18.8717 17.1257 18.8717 17.5682V18.011H19.7388V17.5682C19.7386 17.1257 19.5937 16.9043 19.3068 16.9043Z" fill="white"/>
<path d="M16.0886 16.9043C15.9457 16.9043 15.801 16.9718 15.6561 17.1152V20.0322C15.8008 20.1773 15.9457 20.2459 16.0886 20.2459C16.3387 20.2459 16.4658 20.0322 16.4658 19.6V17.5573C16.4658 17.1257 16.3387 16.9043 16.0886 16.9043Z" fill="white"/>
<path d="M16.573 12.5567C16.8927 12.5567 17.2253 12.3625 17.5742 11.9628V12.4903H18.4506V7.65356H17.5742V11.3503C17.3799 11.6247 17.1958 11.7605 17.0205 11.7605C16.9032 11.7605 16.8342 11.6911 16.8151 11.5552C16.8044 11.5265 16.8044 11.4198 16.8044 11.2145V7.65356H15.9307V11.4781C15.9307 11.8197 15.96 12.0509 16.0083 12.1973C16.0965 12.4423 16.2909 12.5567 16.573 12.5567Z" fill="white"/>
<path d="M10.4715 9.86168V12.4903H11.4434V9.86168L12.6125 6H11.6298L10.9666 8.54877L10.2767 6H9.25403C9.45894 6.60162 9.67211 7.20624 9.87702 7.80842C10.1888 8.71357 10.3834 9.39599 10.4715 9.86168Z" fill="white"/>
<path d="M13.9152 12.5567C14.3542 12.5567 14.6954 12.3915 14.9375 12.0616C15.1214 11.8195 15.2095 11.4382 15.2095 10.9242V9.23047C15.2095 8.7134 15.1216 8.33545 14.9375 8.09116C14.6954 7.76026 14.3544 7.59509 13.9152 7.59509C13.4783 7.59509 13.1373 7.76026 12.8947 8.09116C12.7085 8.33545 12.6204 8.7134 12.6204 9.23047V10.9242C12.6204 11.4382 12.7085 11.8195 12.8947 12.0616C13.1371 12.3915 13.4783 12.5567 13.9152 12.5567ZM13.4969 9.0548C13.4969 8.60729 13.6326 8.38419 13.9152 8.38419C14.1977 8.38419 14.333 8.6071 14.333 9.0548V11.0893C14.333 11.5368 14.1977 11.7607 13.9152 11.7607C13.6326 11.7607 13.4969 11.5368 13.4969 11.0893V9.0548Z" fill="white"/>
</svg>
