<svg width="29" height="29" viewBox="0 0 29 29" fill="none" xmlns="http://www.w3.org/2000/svg">
<rect width="29" height="29" fill="white" fill-opacity="0.22"/>
<g clip-path="url(#clip0)">
<path d="M21.9141 9.76501C21.8377 9.68864 21.7104 9.66318 21.6086 9.68864L21.0994 9.86687C21.4049 9.51044 21.6086 9.12854 21.7359 8.7721C21.7868 8.6448 21.7613 8.54297 21.6849 8.46657C21.6086 8.3902 21.4813 8.36474 21.3794 8.41564C20.6665 8.72117 20.0555 8.97577 19.5463 9.12851C19.5463 9.15397 19.5208 9.12851 19.4954 9.12851C19.088 8.89937 18.0951 8.39017 17.3822 8.39017C15.5745 8.41564 14.1233 9.94324 14.1233 11.8018V11.9037C11.4755 11.3945 10.0243 10.6306 8.44572 8.97574L8.19118 8.72114L8.03842 9.02667C7.17278 10.6816 7.78382 12.1837 8.77675 13.2021C8.31848 13.1258 8.01295 12.973 7.73288 12.7439C7.63105 12.6675 7.50375 12.642 7.37645 12.7184C7.27461 12.7693 7.22368 12.9221 7.24915 13.0494C7.60558 14.246 8.49669 15.2135 9.46416 15.799C9.00589 15.799 8.62399 15.7481 8.24208 15.4935C8.14025 15.4426 7.98748 15.4426 7.88565 15.519C7.78382 15.5954 7.73288 15.7226 7.78382 15.8499C8.24208 17.1484 9.13319 17.8358 10.559 18.014C9.82062 18.4469 8.85315 18.8033 7.35101 18.8288C7.19825 18.8288 7.07094 18.9306 7.02004 19.0579C6.96911 19.2107 7.02004 19.338 7.12188 19.4398C8.03845 20.1782 10.0752 20.611 12.5958 20.611C17.0767 20.611 20.743 16.6138 20.743 11.7V11.6236C21.3031 11.3435 21.7614 10.8089 21.9905 10.0705C22.0159 9.96868 21.9905 9.84138 21.9141 9.76501ZM20.3865 11.2162L20.2337 11.2671V11.7C20.2337 16.3337 16.7966 20.1018 12.5957 20.1018C10.2789 20.1018 8.72582 19.7199 7.88565 19.3125C9.64239 19.1852 10.6608 18.6251 11.4501 18.014L12.0866 17.5558H11.3228C9.87155 17.5558 8.98045 17.1484 8.47125 16.1809C8.92952 16.3337 9.41325 16.3337 9.94792 16.3082C10.1516 16.2828 10.3553 16.2828 10.559 16.2828L10.6353 15.7736C9.66785 15.4935 8.52215 14.6279 7.96202 13.4567C8.47122 13.6859 9.03132 13.7368 9.54053 13.7368H10.3298L9.69332 13.2785C9.15865 12.8966 7.58015 11.5472 8.34395 9.61224C9.97339 11.2162 11.5265 11.9546 14.327 12.4638L14.6326 12.5147V11.8018C14.6326 10.2233 15.8546 8.92484 17.3822 8.89937C17.9678 8.87391 18.9353 9.40858 19.2154 9.56134C19.3681 9.63771 19.5209 9.66318 19.6736 9.61227C20.0555 9.48497 20.5138 9.30674 21.023 9.10307C20.7939 9.48497 20.4883 9.84141 20.081 10.1724C19.9792 10.2488 19.9537 10.4015 20.0046 10.5288C20.0556 10.6561 20.2083 10.7071 20.3356 10.6561L21.3285 10.3252C21.1503 10.6561 20.8702 11.038 20.3865 11.2162Z" fill="white"/>
</g>
<defs>
<clipPath id="clip0">
<rect width="15" height="15" fill="white" transform="translate(7 7)"/>
</clipPath>
</defs>
</svg>
