<svg width="29" height="29" viewBox="0 0 29 29" fill="none" xmlns="http://www.w3.org/2000/svg">
<rect width="29" height="29" fill="white" fill-opacity="0.22"/>
<path d="M15.0004 8C13.0702 8 11.5004 9.56975 11.5004 11.5C11.5004 13.4303 13.0702 15 15.0004 15C16.9307 15 18.5004 13.4303 18.5004 11.5C18.5004 9.56975 16.9307 8 15.0004 8ZM15.0004 14.125C13.5532 14.125 12.3754 12.9472 12.3754 11.5C12.3754 10.0527 13.5532 8.875 15.0004 8.875C16.4477 8.875 17.6254 10.0527 17.6254 11.5C17.6254 12.9472 16.4477 14.125 15.0004 14.125Z" fill="white"/>
<path d="M18.4217 21.3114L15.3592 16.9364C15.1964 16.7037 14.8071 16.7037 14.6426 16.9364L11.5801 21.3114C11.4418 21.5092 11.4891 21.7822 11.6877 21.9204C11.8854 22.0595 12.1584 22.0114 12.2967 21.8137L15.0004 17.9505L17.7051 21.8137C17.7899 21.9353 17.9256 22 18.0629 22C18.1504 22 18.2371 21.9747 18.3149 21.9204C18.5127 21.7822 18.5608 21.51 18.4217 21.3114Z" fill="white"/>
<path d="M19.3308 15.2117C19.1602 15.0411 18.8828 15.0411 18.7122 15.2117C16.6638 17.2592 13.3344 17.2592 11.2878 15.2117C11.1172 15.0411 10.8398 15.0411 10.6692 15.2117C10.4985 15.3823 10.4985 15.6597 10.6692 15.8303C11.8635 17.0238 13.4324 17.6215 15.0004 17.6215C16.5684 17.6215 18.1373 17.0238 19.3308 15.8303C19.5014 15.6597 19.5014 15.3823 19.3308 15.2117Z" fill="white"/>
</svg>
