<svg width="29" height="29" viewBox="0 0 29 29" fill="none" xmlns="http://www.w3.org/2000/svg">
<rect width="29" height="29" fill="white" fill-opacity="0.22"/>
<path d="M20.9757 7.15511C20.8004 7.1628 20.6297 7.2116 20.4758 7.27324C20.3234 7.33446 19.4464 7.7088 18.1512 8.26253C16.8561 8.81627 15.1725 9.53735 13.5036 10.2524C10.1658 11.6824 6.88578 13.0895 6.88578 13.0895L6.90969 13.0803C6.90969 13.0803 6.71172 13.1465 6.51102 13.2864C6.41066 13.3563 6.3027 13.4466 6.2143 13.5782C6.1259 13.7098 6.06127 13.8963 6.08562 14.0935C6.17117 14.7865 6.8893 14.983 6.8893 14.983L6.89211 14.9844L10.097 16.0813C10.1787 16.3539 11.069 19.3255 11.2648 19.9548C11.373 20.3027 11.4742 20.5034 11.5798 20.6403C11.6327 20.7089 11.6881 20.7619 11.7493 20.8007C11.7736 20.8161 11.7992 20.8276 11.8245 20.8379C11.8251 20.8382 11.8254 20.8377 11.8259 20.8379C11.829 20.8393 11.832 20.8394 11.8351 20.8407L11.8266 20.8386C11.8325 20.841 11.8383 20.845 11.8442 20.8471C11.8556 20.8511 11.8626 20.8509 11.8773 20.8541C12.2443 20.9822 12.548 20.7444 12.548 20.7444L12.5607 20.7346L14.5295 18.9085L17.7245 21.3997L17.7645 21.418C18.3238 21.6663 18.8295 21.5278 19.1096 21.2999C19.3897 21.072 19.4998 20.7782 19.4998 20.7782L19.5118 20.7472L21.8595 8.51074C21.9196 8.23698 21.9281 8.00035 21.8715 7.78652C21.8148 7.57269 21.6772 7.38681 21.5045 7.28378C21.3317 7.18076 21.151 7.14742 20.9757 7.15511ZM20.9947 7.88706C21.0659 7.88377 21.1187 7.89191 21.1353 7.90183C21.1519 7.91175 21.1594 7.91045 21.1754 7.97074C21.1914 8.03103 21.2 8.15801 21.1564 8.35675L21.155 8.36097L18.8206 20.5264C18.8151 20.5387 18.7665 20.6512 18.6554 20.7416C18.5421 20.8338 18.4161 20.9058 18.0816 20.7655L14.5878 18.0409L14.4894 17.9635L14.4873 17.9657L13.4424 17.1817L19.3142 10.2735C19.3593 10.2205 19.3882 10.1556 19.3972 10.0867C19.4062 10.0177 19.3951 9.94759 19.3651 9.88481C19.3351 9.82204 19.2876 9.76929 19.2283 9.73295C19.169 9.69661 19.1004 9.67823 19.0309 9.68003C18.9629 9.6818 18.8968 9.70276 18.8403 9.7405L10.3438 15.4049L7.13398 14.3059C7.13398 14.3059 6.81526 14.1285 6.8 14.005C6.79915 13.9981 6.79539 14.0043 6.81195 13.9796C6.82852 13.955 6.87015 13.9134 6.92234 13.877C7.02674 13.8043 7.14594 13.7603 7.14594 13.7603L7.15789 13.756L7.16984 13.7511C7.16984 13.7511 10.45 12.344 13.7877 10.914C15.4565 10.199 17.1398 9.47848 18.4346 8.92488C19.7291 8.37142 20.6645 7.97305 20.7437 7.94121C20.8338 7.9051 20.9235 7.89036 20.9947 7.88706ZM17.1008 11.7655L12.6479 17.0045L12.6458 17.0066C12.6388 17.015 12.6323 17.0236 12.6261 17.0326C12.619 17.0424 12.6125 17.0524 12.6064 17.0628C12.5814 17.1053 12.5654 17.1525 12.5593 17.2014C12.5593 17.2023 12.5593 17.2032 12.5593 17.2042L11.9792 19.8128C11.9696 19.7846 11.9628 19.7743 11.9525 19.741V19.7403C11.7683 19.1483 10.9283 16.3458 10.812 15.9582L17.1008 11.7655ZM13.1506 17.863L13.9508 18.4635L12.7752 19.5533L13.1506 17.863Z" fill="white"/>
</svg>
