<svg width="29" height="29" viewBox="0 0 29 29" fill="none" xmlns="http://www.w3.org/2000/svg">
<rect width="29" height="29" fill="white" fill-opacity="0.22"/>
<g clip-path="url(#clip0)">
<path d="M21.3336 16.8345C21.0073 16.4434 20.6387 16.0943 20.2821 15.7567C20.1569 15.638 20.0273 15.5153 19.9025 15.3934C19.9024 15.3934 19.9024 15.3934 19.9024 15.3933C19.7345 15.2296 19.6523 15.1134 19.6437 15.0275C19.6353 14.9431 19.693 14.818 19.8256 14.6329C20.0239 14.3546 20.2353 14.0758 20.4398 13.8062C20.6215 13.5666 20.8094 13.3187 20.9895 13.0695L21.03 13.0136C21.3814 12.5272 21.7447 12.0242 21.9394 11.4113C21.995 11.2356 22.0528 10.9756 21.9135 10.7473C21.7742 10.5189 21.5159 10.4513 21.3338 10.4203C21.2449 10.405 21.1605 10.4038 21.082 10.4038L18.8025 10.4018C18.4084 10.3952 18.135 10.582 17.986 10.9571C17.8668 11.2567 17.726 11.6039 17.5628 11.9333C17.2506 12.5691 16.854 13.3014 16.2791 13.9116L16.2535 13.9388C16.2144 13.9806 16.1504 14.0489 16.1176 14.0646C16.0553 14.0254 15.9834 13.8016 15.9867 13.6843C15.9868 13.6814 15.9868 13.6785 15.9868 13.6756L15.9848 11.0418C15.9848 11.0284 15.9839 11.015 15.9821 11.0017C15.931 10.6259 15.8313 10.2492 15.2366 10.1319C15.2175 10.1281 15.1981 10.1262 15.1787 10.1262H12.8075C12.3614 10.1262 12.1255 10.3305 11.9363 10.552C11.8816 10.6166 11.7361 10.788 11.8102 10.9976C11.8852 11.2097 12.1087 11.252 12.182 11.2659C12.4404 11.3149 12.5741 11.461 12.6154 11.7402C12.6972 12.2827 12.7072 12.863 12.647 13.5657C12.6302 13.7543 12.599 13.8977 12.5486 14.0169C12.5346 14.0499 12.5224 14.0704 12.5138 14.0824C12.5002 14.0769 12.479 14.0664 12.4495 14.0462C12.268 13.922 12.1311 13.7288 11.9988 13.5421C11.4702 12.7958 11.0256 11.9716 10.6394 11.0219C10.4803 10.6328 10.1813 10.4154 9.79799 10.4098C9.06767 10.3976 8.39223 10.3979 7.73375 10.4107C7.42318 10.4161 7.20538 10.5139 7.08632 10.7013C6.96711 10.8892 6.97148 11.1286 7.09933 11.4132C8.01328 13.4456 8.84314 14.924 9.79002 16.207C10.4567 17.1103 11.1279 17.7373 11.9021 18.1803C12.7156 18.6457 13.633 18.8738 14.6973 18.8737C14.8183 18.8737 14.9414 18.8708 15.0662 18.8648C15.7228 18.8349 15.99 18.5737 16.0191 17.9342C16.0355 17.5962 16.0731 17.3224 16.2036 17.0845C16.2401 17.0179 16.2813 16.9733 16.3138 16.9651C16.3483 16.9565 16.4095 16.9776 16.4775 17.0218C16.602 17.1026 16.7091 17.2122 16.7972 17.3084C16.8865 17.4061 16.9767 17.5071 17.0641 17.6048C17.2499 17.8127 17.4421 18.0277 17.6434 18.2328C18.0988 18.697 18.6237 18.9098 19.2043 18.8653L21.2904 18.8662C21.2904 18.8662 21.2905 18.8662 21.2905 18.8662C21.2971 18.8662 21.3037 18.866 21.3103 18.8656C21.551 18.8495 21.759 18.7163 21.8812 18.5C22.0283 18.2395 22.026 17.9095 21.8751 17.617C21.7176 17.3129 21.5133 17.0511 21.3336 16.8345ZM21.3608 18.2062C21.3321 18.2571 21.2966 18.2664 21.2783 18.2686L19.1926 18.2677C19.1926 18.2677 19.1925 18.2677 19.1924 18.2677C19.1842 18.2677 19.1759 18.268 19.1678 18.2687C18.7569 18.3029 18.4076 18.1585 18.0699 17.8143C17.8783 17.6191 17.6909 17.4094 17.5096 17.2066C17.4213 17.1078 17.33 17.0056 17.2382 16.9051C17.1244 16.7809 16.9838 16.638 16.803 16.5207C16.5325 16.345 16.3082 16.3503 16.1678 16.3857C16.0288 16.4207 15.8313 16.5206 15.6797 16.7973C15.4833 17.1553 15.44 17.5415 15.4223 17.9063C15.4121 18.1295 15.3744 18.1884 15.3586 18.2034C15.338 18.223 15.269 18.2575 15.0387 18.268C13.9319 18.3201 13.0032 18.1219 12.1989 17.6617C11.4992 17.2614 10.8865 16.6864 10.2709 15.8523C9.35021 14.6048 8.54015 13.1602 7.6444 11.1683C7.61194 11.0962 7.60192 11.0512 7.59902 11.027C7.62187 11.0195 7.66652 11.0097 7.7448 11.0082C8.3966 10.9956 9.06498 10.9953 9.7887 11.0073C9.88778 11.0088 10.0006 11.0385 10.086 11.2476C10.4896 12.2398 10.9557 13.1034 11.5112 13.8876C11.6587 14.0957 11.8422 14.3548 12.112 14.5394C12.3592 14.7087 12.5597 14.7006 12.6844 14.664C12.8092 14.6274 12.9825 14.5258 13.0991 14.2495C13.1744 14.0715 13.2199 13.871 13.2424 13.6177C13.3068 12.8662 13.2953 12.2413 13.2065 11.6519C13.1439 11.2297 12.9259 10.9247 12.5824 10.7689C12.6434 10.7371 12.7122 10.7239 12.8076 10.7239H15.1478C15.2794 10.7534 15.3055 10.7881 15.3144 10.8C15.3523 10.8504 15.374 10.9697 15.3873 11.0628L15.3893 13.6724C15.384 13.9226 15.5056 14.4774 15.9195 14.6296C15.9229 14.6308 15.9264 14.632 15.9298 14.6331C16.3067 14.7563 16.5559 14.4902 16.6898 14.3473L16.7136 14.3219C17.3434 13.6535 17.7675 12.8725 18.0988 12.1977C18.2715 11.8492 18.4177 11.4887 18.5414 11.178C18.6032 11.0222 18.6596 10.9965 18.7939 10.9993C18.7958 10.9994 18.7976 10.9994 18.7995 10.9994L21.0818 11.0014C21.1349 11.0014 21.1903 11.002 21.2333 11.0094C21.342 11.0279 21.3868 11.0505 21.4016 11.0598C21.4031 11.0771 21.4028 11.1269 21.3699 11.2309C21.2044 11.752 20.8844 12.1948 20.5457 12.6636L20.5052 12.7197C20.3293 12.9632 20.1434 13.2082 19.9637 13.4452C19.7566 13.7183 19.5425 14.0006 19.3395 14.2855C18.9055 14.8911 18.9437 15.2929 19.4853 15.8212C19.6133 15.9462 19.7445 16.0704 19.8714 16.1906C20.2312 16.5314 20.571 16.8533 20.8743 17.2168C21.0331 17.4082 21.2131 17.6381 21.3443 17.8914C21.4128 18.0241 21.396 18.1439 21.3608 18.2062Z" fill="white"/>
<path d="M9.17918 11.9698C9.13529 11.883 9.09179 11.7959 9.04869 11.7087C8.97557 11.5607 8.7965 11.5 8.64846 11.5731C8.50051 11.6462 8.43981 11.8254 8.51291 11.9733C8.55682 12.0622 8.60115 12.1509 8.64583 12.2394C8.69842 12.3434 8.80362 12.4034 8.91272 12.4034C8.95802 12.4034 9.00404 12.3931 9.04726 12.3713C9.19459 12.2968 9.25362 12.1171 9.17918 11.9698Z" fill="white"/>
<path d="M11.0533 15.0696C10.5633 14.4058 10.105 13.6848 9.65203 12.8654C9.57219 12.7209 9.39038 12.6686 9.24597 12.7484C9.10157 12.8282 9.04918 13.01 9.12902 13.1545C9.59472 13.9969 10.0669 14.7395 10.5725 15.4245C10.6311 15.5039 10.7215 15.5459 10.8132 15.5459C10.8748 15.5459 10.937 15.5269 10.9903 15.4875C11.1231 15.3895 11.1513 15.2024 11.0533 15.0696Z" fill="white"/>
</g>
<defs>
<clipPath id="clip0">
<rect width="15" height="15" fill="white" transform="translate(7 7)"/>
</clipPath>
</defs>
</svg>
