<svg width="23" height="24" fill="none" xmlns="http://www.w3.org/2000/svg"><g clip-path="url(#a)"><path d="M21.661 14.703V6.45L5.403 3.514V2.5c0-1.103-.897-2-2-2H1.338v1.355h2.065c.356 0 .645.29.645.645v12.51a2.622 2.622 0 0 0 2.62 2.619h.541v1.544a2.26 2.26 0 0 0-3.161 2.069A2.26 2.26 0 0 0 6.306 23.5a2.261 2.261 0 0 0 2.247-2.032h.011v-3.84h11.742v1.545a2.26 2.26 0 0 0-3.161 2.069 2.26 2.26 0 0 0 2.258 2.258 2.261 2.261 0 0 0 2.247-2.032h.011v-5.194H6.667a1.266 1.266 0 0 1-1.264-1.264v-.533l16.258.226ZM6.306 22.145a.904.904 0 0 1 0-1.806.904.904 0 0 1 0 1.806Zm13.097 0a.904.904 0 0 1 0-1.806.904.904 0 0 1 0 1.806Zm-7.226-8.929-2.71-.037V5.624l2.71.49v7.101Zm1.355-6.857 2.484.448v6.462l-2.484-.034V6.359Zm-5.42 6.8-2.709-.037V4.891l2.71.49v7.779Zm12.194.17-2.935-.04V7.051l2.936.53v5.747Z" fill="#fff"/></g><defs><clipPath id="a"><path fill="#fff" transform="translate(0 .5)" d="M0 0h23v23H0z"/></clipPath></defs></svg>