<svg width="46" height="46" fill="none" xmlns="http://www.w3.org/2000/svg"><g clip-path="url(#a)" fill="#FC9F48"><path d="M45.737 22.366 23.636.264a.899.899 0 0 0-1.271 0L.263 22.366a.9.9 0 0 0 0 1.27l22.102 22.102a.9.9 0 0 0 1.27 0l22.102-22.102a.899.899 0 0 0 0-1.27Zm-7.986 1.015c1.598 2.486-2.26 2.858-1.741 7.441l-6.18 6.18c-.25-2.317 1.156-4.244 2.085-5.793 2.375-3.988 2.423-6.538 2.462-8.588.023-1.203.042-2.241.53-3.39.493-1.16 1.325-2.03 2.201-2.953l1.51 1.51c-1.535 1.624-2.038 3.597-.867 5.593ZM23.001 2.17l2.883 2.884C24.777 6 23.45 6.575 21.85 6.805c-.958.137-2.035-.147-2.975-.51L23 2.17Zm-6.46 35.203-2.497-2.497c1.75-1.034 3.482-1.206 4.301-4.174a.898.898 0 1 0-1.74-.443c-.536 2.264-2.32 2.178-3.853 3.325l-2.354-2.355c2.38-1.265 5.347-2.102 6.524-4.722.196-.437.389-.9.575-1.346.835-1.999 1.698-4.066 3.26-5.19.674-.486 1.426-.46 1.763-.152.38.345.05 1.012-.108 1.284-1.857 3.169-2.095 7.294-2.095 10.533.05 3.52-2.025 3.505-3.776 5.737Zm6.46 6.459-5.183-5.182c.56-.706 1.138-1.188 1.701-1.657 1.334-1.11 2.594-2.159 2.594-5.357 0-3.012.21-6.829 1.849-9.625 1.908-3.349-1.719-5.354-4.256-3.498-2.383 1.735-3.293 4.724-4.424 7.26-.937 2.095-4.152 2.9-6.206 4.134L4.967 25.8c2.11-1.153 5.073-1.933 6.637-3.537.673-.696 1.29-1.567 1.863-2.4a.898.898 0 1 0-1.48-1.02c-.53.771-1.097 1.573-1.674 2.17-1.5 1.445-4.677 2.242-6.668 3.465L2.17 23 17.502 7.669c1.083.48 2.463.967 3.842.967a9.442 9.442 0 0 0 5.813-2.31l2.54 2.54c-3.595 1.881-5.796.363-9.555 2.157-.93.429-1.817.95-2.636 1.549a.899.899 0 0 0 1.06 1.45c5.085-3.767 7.436-.921 12.45-3.837l4.821 4.822c-.964 1.014-1.955 2.044-2.583 3.521-.625 1.47-.648 2.727-.674 4.06-.036 1.932-.078 4.123-2.21 7.702-1.172 1.956-3.192 4.753-2.022 8.194L23 43.832Zm14.904-14.905c.2-.705.584-1.237.98-1.786 3.175-4.04-1.994-4.794 1.005-8.081L43.831 23l-5.926 5.927Z"/><path d="M15.11 15.186a.898.898 0 0 0-.9.899c.045 1.19 1.754 1.19 1.798 0a.898.898 0 0 0-.899-.899Z"/></g><defs><clipPath id="a"><path fill="#fff" d="M0 0h46v46H0z"/></clipPath></defs></svg>