<svg width="46" height="46" fill="none" xmlns="http://www.w3.org/2000/svg"><path d="M23 44.203c-9.515 0-17.816-6.427-20.187-15.63a.72.72 0 0 1 1.393-.358c2.206 8.567 9.935 14.55 18.794 14.55 10.7 0 19.406-8.705 19.406-19.405a.718.718 0 1 1 1.438 0c0 11.492-9.351 20.843-20.844 20.843ZM2.875 23.36a.718.718 0 0 1-.718-.719c0-11.493 9.35-20.844 20.843-20.844 9.516 0 17.816 6.427 20.187 15.63a.72.72 0 0 1-1.393.359C39.588 9.218 31.859 3.235 23 3.235c-10.7 0-19.406 8.705-19.406 19.406a.718.718 0 0 1-.719.719Z" fill="#FC9F48"/><path d="M2.875 23.36a.716.716 0 0 1-.508-.211L.211 20.993a.717.717 0 1 1 1.016-1.016l2.156 2.156a.717.717 0 0 1-.508 1.227Z" fill="#FC9F48"/><path d="M2.875 23.36a.717.717 0 0 1-.508-1.227l2.156-2.156a.717.717 0 1 1 1.016 1.016l-2.156 2.156a.715.715 0 0 1-.508.21Zm42.406 2.156a.715.715 0 0 1-.508-.211l-2.156-2.156a.717.717 0 1 1 1.016-1.016l2.156 2.156a.717.717 0 0 1-.508 1.227Z" fill="#FC9F48"/><path d="M40.969 25.516a.717.717 0 0 1-.508-1.227l2.156-2.156a.718.718 0 1 1 1.016 1.016l-2.156 2.156a.715.715 0 0 1-.508.21ZM10.061 39.492a.718.718 0 0 1-.719-.719V20.477a.718.718 0 1 1 1.438 0v18.296a.718.718 0 0 1-.719.719Zm25.878.001a.718.718 0 0 1-.719-.718V20.477a.718.718 0 1 1 1.438 0v18.298a.718.718 0 0 1-.719.718Z" fill="#FC9F48"/><path d="M35.939 21.196H10.061a.718.718 0 1 1 0-1.437h25.878a.718.718 0 1 1 0 1.437Z" fill="#FC9F48"/><path d="M10.06 21.196a.719.719 0 0 1-.616-1.089l2.157-3.595a.719.719 0 0 1 1.232.74l-2.156 3.595a.717.717 0 0 1-.617.35Zm25.88 0a.717.717 0 0 1-.617-.348l-2.157-3.595a.719.719 0 0 1 1.233-.74l2.157 3.595a.719.719 0 0 1-.616 1.088Z" fill="#FC9F48"/><path d="M33.783 17.601H12.217a.718.718 0 1 1 0-1.437h21.566a.718.718 0 1 1 0 1.437Z" fill="#FC9F48"/><path d="M20.124 21.196a.718.718 0 0 1-.705-.86l.719-3.595a.714.714 0 0 1 .846-.564.718.718 0 0 1 .564.846l-.72 3.595a.72.72 0 0 1-.704.578Zm5.75 0a.718.718 0 0 1-.703-.578l-.72-3.595a.72.72 0 0 1 1.41-.283l.72 3.596a.72.72 0 0 1-.707.86Z" fill="#FC9F48"/><path d="M20.123 25.509a.718.718 0 0 1-.718-.72v-4.312a.718.718 0 1 1 1.437 0v4.313a.718.718 0 0 1-.719.719Zm5.752 0a.718.718 0 0 1-.719-.72v-4.312a.718.718 0 1 1 1.438 0v4.313a.718.718 0 0 1-.719.719Z" fill="#FC9F48"/><path d="M25.876 25.509a.73.73 0 0 1-.175-.022l-2.875-.719a.719.719 0 0 1 .348-1.394l2.875.719a.719.719 0 0 1-.173 1.416Z" fill="#FC9F48"/><path d="M20.123 25.509a.719.719 0 0 1-.173-1.416l2.876-.72a.717.717 0 0 1 .871.524.718.718 0 0 1-.523.871l-2.876.72a.73.73 0 0 1-.175.02Zm9.349 8.626H16.528a.718.718 0 1 1 0-1.438h12.944a.718.718 0 1 1 0 1.438Zm0-2.869H16.528a.718.718 0 1 1 0-1.438h12.944a.718.718 0 1 1 0 1.438Zm-3.595 5.745h-5.754a.718.718 0 1 1 0-1.437h5.754a.718.718 0 1 1 0 1.437Z" fill="#FC9F48"/></svg>