<svg width="29" height="29" fill="none" xmlns="http://www.w3.org/2000/svg"><path fill="#fff" fill-opacity=".22" d="M0 0h29v29H0z"/><g clip-path="url(#a)"><path d="M18.223 9.86h1.566V7.002h-2.845c-.238-.01-3.13-.066-3.88 2.794-.012.03-.251.71-.251 2.299l-2.602.008V15.1l2.605-.008V23h3.979v-7.9h2.633v-3.006h-2.633v-.946c0-.588.248-1.288 1.428-1.288Zm.547 2.892v1.69h-2.633v7.9h-2.663v-7.91l-2.604.008v-1.68l2.611-.008-.007-.334c-.034-1.683.206-2.39.217-2.425.647-2.463 3.118-2.339 3.224-2.332h2.215v1.542h-.907c-1.538 0-2.086 1.005-2.086 1.946v1.604h2.633Z" fill="#fff"/></g><defs><clipPath id="a"><path fill="#fff" transform="translate(7 7)" d="M0 0h16v16H0z"/></clipPath></defs></svg>