<svg width="29" height="29" fill="none" xmlns="http://www.w3.org/2000/svg"><path fill="#fff" fill-opacity=".22" d="M0 0h29v29H0z"/><g clip-path="url(#a)"><path d="M21.914 9.765a.335.335 0 0 0-.305-.076l-.51.178c.306-.357.51-.738.637-1.095.05-.127.025-.229-.051-.305a.27.27 0 0 0-.306-.051c-.713.305-1.324.56-1.833.713 0 .025-.025 0-.05 0-.408-.23-1.4-.739-2.114-.739-1.808.026-3.259 1.553-3.259 3.412v.102c-2.647-.51-4.099-1.273-5.677-2.928L8.19 8.72l-.153.306c-.865 1.655-.254 3.157.739 4.175-.459-.076-.764-.229-1.044-.458-.102-.076-.23-.102-.357-.026-.101.051-.152.204-.127.331.357 1.197 1.248 2.165 2.215 2.75-.458 0-.84-.05-1.222-.306a.359.359 0 0 0-.356.026c-.102.076-.153.204-.102.33.458 1.3 1.35 1.987 2.775 2.165-.738.433-1.706.79-3.208.815a.362.362 0 0 0-.331.229c-.05.153 0 .28.102.382.916.738 2.953 1.171 5.474 1.171 4.48 0 8.147-3.997 8.147-8.911v-.076c.56-.28 1.018-.815 1.248-1.554a.335.335 0 0 0-.077-.305Zm-1.527 1.451-.153.051v.433c0 4.634-3.437 8.402-7.638 8.402-2.317 0-3.87-.382-4.71-.79 1.756-.127 2.775-.687 3.564-1.298l.637-.458h-.764c-1.451 0-2.343-.408-2.852-1.375.459.153.942.153 1.477.127.204-.025.407-.025.611-.025l.076-.51c-.967-.28-2.113-1.145-2.673-2.316.51.229 1.07.28 1.579.28h.789l-.637-.459c-.534-.381-2.113-1.73-1.349-3.666 1.63 1.604 3.183 2.343 5.983 2.852l.306.05v-.712c0-1.579 1.222-2.877 2.75-2.903.585-.025 1.552.51 1.832.662a.584.584 0 0 0 .459.051c.381-.127.84-.305 1.349-.509-.23.382-.535.738-.942 1.07-.102.076-.127.229-.076.356.05.127.203.178.33.127l.993-.33c-.178.33-.458.712-.941.89Z" fill="#fff"/></g><defs><clipPath id="a"><path fill="#fff" transform="translate(7 7)" d="M0 0h15v15H0z"/></clipPath></defs></svg>